<?xml version="1.0" standalone="no"?>
<!DOCTYPE svg PUBLIC "-//W3C//DTD SVG 20010904//EN"
 "http://www.w3.org/TR/2001/REC-SVG-20010904/DTD/svg10.dtd">
<svg version="1.0" xmlns="http://www.w3.org/2000/svg"
 width="954.000000pt" height="514.000000pt" viewBox="0 0 954.000000 514.000000"
 preserveAspectRatio="xMidYMid meet">

<g transform="translate(0.000000,514.000000) scale(0.100000,-0.100000)"
fill="#000000" stroke="none">
<path d="M3090 4658 l0 -473 78 -18 c42 -10 116 -33 165 -51 l87 -33 0 356 0
356 212 -5 211 -5 401 -571 c221 -313 644 -916 941 -1339 l540 -769 6 390 c6
444 10 471 94 639 106 213 302 376 535 446 73 22 89 23 710 29 694 7 712 8
899 70 120 39 285 124 391 202 l85 63 -950 3 c-603 2 -983 -1 -1040 -7 -235
-27 -457 -124 -642 -280 -39 -34 -74 -61 -77 -61 -3 0 -6 268 -6 595 l0 595
130 0 130 0 0 -356 c0 -335 1 -356 18 -349 66 25 216 74 260 85 l52 12 0 474
0 474 -465 0 -465 0 -2 -977 -3 -978 -137 195 c-76 107 -384 546 -686 975
l-547 780 -463 3 -462 2 0 -472z"/>
<path d="M3670 4092 c0 -271 -4 -492 -8 -492 -5 0 -19 12 -33 26 -76 84 -300
217 -440 263 -168 55 -146 54 -1219 58 l-995 3 34 -27 c119 -96 312 -201 446
-243 176 -54 158 -52 845 -60 557 -6 654 -9 710 -24 112 -29 225 -78 280 -123
8 -6 41 -33 73 -59 32 -25 83 -76 113 -113 62 -74 146 -236 170 -326 22 -86
33 -316 34 -732 l0 -363 -129 0 -130 0 -3 483 -4 482 -27 82 c-49 145 -151
272 -281 348 -23 13 -77 36 -121 52 l-80 28 -489 3 -488 4 33 -30 c61 -53 172
-123 274 -172 174 -84 326 -122 540 -135 155 -10 218 -41 272 -133 l28 -47 5
-645 5 -645 463 -3 462 -2 0 977 1 978 22 -25 c12 -14 323 -454 691 -978 l669
-952 463 0 463 0 3 633 3 632 24 48 c29 59 98 121 158 141 26 9 76 16 111 16
88 0 255 26 360 56 117 33 310 129 409 202 44 33 84 65 87 71 9 15 -883 15
-972 1 -133 -22 -241 -78 -338 -174 -68 -68 -105 -127 -143 -225 l-26 -66 -5
-500 -5 -500 -206 -3 -205 -2 -106 147 c-58 82 -484 688 -948 1348 -463 660
-844 1202 -846 1204 -2 2 -4 -217 -4 -487z"/>
<path d="M55 4514 c100 -86 288 -189 435 -238 191 -63 125 -60 1264 -63 l1040
-4 -40 32 c-154 124 -363 223 -572 271 -96 22 -104 22 -1127 25 l-1030 3 30
-26z"/>
<path d="M7280 4525 c-232 -37 -491 -154 -650 -294 l-35 -31 1035 3 c1139 4
1097 2 1293 67 157 53 334 150 437 239 l35 30 -1015 0 c-799 -1 -1033 -4
-1100 -14z"/>
<path d="M3838 780 c-119 -21 -229 -104 -284 -215 -26 -55 -29 -69 -29 -165 0
-99 2 -109 33 -172 41 -83 119 -158 200 -189 44 -18 77 -23 147 -23 117 0 183
25 263 99 216 199 143 551 -133 648 -55 19 -141 27 -197 17z m167 -159 c129
-58 181 -206 118 -332 -48 -93 -145 -147 -245 -136 -239 29 -300 354 -86 461
64 32 152 35 213 7z"/>
<path d="M5648 781 c-110 -22 -195 -127 -185 -229 10 -101 71 -158 218 -207
76 -26 129 -63 129 -92 0 -33 -31 -72 -66 -83 -49 -17 -106 -7 -176 28 l-58
30 -36 -60 -37 -61 29 -24 c69 -56 224 -87 311 -64 90 25 166 111 179 202 16
118 -55 209 -203 257 -120 40 -153 69 -132 116 23 49 107 58 181 20 16 -9 31
-14 32 -12 2 2 19 27 39 57 42 63 40 69 -31 99 -55 23 -141 33 -194 23z"/>
<path d="M7307 776 c-172 -48 -224 -254 -91 -364 20 -17 55 -37 78 -45 22 -8
63 -22 89 -32 98 -35 126 -90 73 -144 -23 -22 -35 -26 -85 -26 -46 0 -71 7
-121 33 -35 18 -64 31 -65 30 -1 -2 -18 -31 -38 -65 l-36 -63 47 -27 c225
-132 475 -42 476 171 0 125 -58 184 -247 251 -70 25 -102 55 -93 88 13 55 100
71 177 33 18 -9 33 -16 35 -16 2 0 21 25 43 57 47 64 45 70 -27 101 -63 27
-155 35 -215 18z"/>
<path d="M10 400 l0 -370 70 0 70 0 0 220 c0 170 3 220 13 220 6 -1 86 -100
177 -220 l165 -220 63 0 62 0 -2 368 -3 367 -67 3 -68 3 0 -221 c0 -179 -3
-220 -14 -220 -7 0 -88 99 -180 220 l-167 220 -59 0 -60 0 0 -370z"/>
<path d="M1830 400 l0 -370 245 0 245 0 0 70 0 70 -170 0 -170 0 0 80 0 80
160 0 160 0 0 70 0 70 -160 0 -160 0 0 75 0 75 170 0 170 0 0 75 0 75 -245 0
-245 0 0 -370z"/>
<path d="M8972 408 c-73 -200 -132 -366 -132 -370 0 -5 35 -8 78 -8 l77 0 29
80 28 80 133 0 133 0 28 -80 27 -80 80 0 c59 0 78 3 75 13 -3 6 -63 173 -134
369 l-129 358 -81 0 -80 0 -132 -362z m257 22 c17 -46 31 -87 31 -92 0 -4 -34
-8 -75 -8 -41 0 -75 4 -75 9 0 5 14 47 30 93 17 46 33 90 36 98 7 20 14 7 53
-100z"/>
</g>
</svg>
